# xmcd CD database file generated by OrangeCD 6.2
#
# Track frame offsets:
#	150
#	22029
#	41508
#	61967
#	76383
#	103720
#	128248
#	148238
#	168016
#	185369
#	219738
#	236477
#
# Disc length: 3453 seconds
#
# Revision: 0
# Processed by: cddbd v1.5.2PL0 Copyright (c) Steve Scherf et al.
# Submitted via: OrangeCD 6.2
#
DISCID=a50d7b0c
DTITLE=B.B. King - One Kind Favor
DYEAR=1900
DGENRE=
TTITLE0=See That My Grave Is Kept Clean
TTITLE1=I Get So Weary
TTITLE2=Get These Blues Off Me
TTITLE3=How Many More Years
TTITLE4=Waiting For Your Call
TTITLE5=My Love Is Down
TTITLE6=The World Gone Wrong
TTITLE7=Blues Before Sunrise
TTITLE8=Midnight Blues
TTITLE9=Backwater Blues
TTITLE10=Sitting On The Top Of The World
TTITLE11=Tomorrow Night
EXTD=
EXTT0=
EXTT1=
EXTT2=
EXTT3=
EXTT4=
EXTT5=
EXTT6=
EXTT7=
EXTT8=
EXTT9=
EXTT10=
EXTT11=
PLAYORDER=
